{
  "accessors": [
    {
      "bufferView": 1,
      "componentType": 5126,
      "count": 65532,
      "max": [
        8.0749502182006836,
        6.0179300308227539,
        5.745570182800293
      ],
      "min": [
        -7.3378500938415527,
        -6.2942700386047363,
        -4.7481498718261719
      ],
      "type": "VEC3"
    },
    {
      "bufferView": 1,
      "byteOffset": 786384,
      "componentType": 5126,
      "count": 65532,
      "max": [
        0.99999970197677612,
        0.9999808669090271,
        0.99999898672103882
      ],
      "min": [
        -0.99999111890792847,
        -0.999889075756073,
        -0.99999994039535522
      ],
      "type": "VEC3"
    },
    {
      "bufferView": 0,
      "componentType": 5125,
      "count": 331377,
      "max": [
        65531
      ],
      "min": [
        0
      ],
      "type": "SCALAR"
    },
    {
      "bufferView": 1,
      "byteOffset": 1572768,
      "componentType": 5126,
      "count": 50063,
      "max": [
        8.0534095764160156,
        5.9784698486328125,
        5.745570182800293
      ],
      "min": [
        -7.3187398910522461,
        -6.2853398323059082,
        -4.7481498718261719
      ],
      "type": "VEC3"
    },
    {
      "bufferView": 1,
      "byteOffset": 2173524,
      "componentType": 5126,
      "count": 50063,
      "max": [
        0.99999123811721802,
        0.99997204542160034,
        0.99994629621505737
      ],
      "min": [
        -0.99999111890792847,
        -0.99996334314346313,
        -0.99998539686203003
      ],
      "type": "VEC3"
    },
    {
      "bufferView": 0,
      "byteOffset": 1325508,
      "componentType": 5125,
      "count": 203583,
      "max": [
        50062
      ],
      "min": [
        0
      ],
      "type": "SCALAR"
    }
  ],
  "asset": {
    "extras": {
      "author": "iRowbot (https://sketchfab.com/IsaacRowea591be32e72340bb)",
      "license": "CC-BY-4.0 (http://creativecommons.org/licenses/by/4.0/)",
      "source": "https://sketchfab.com/models/d4647fbddb8f46b4be4f5e14eb86a329",
      "title": "Day 4 Asteroid"
    },
    "generator": "Sketchfab-3.18.7",
    "version": "2.0"
  },
  "bufferViews": [
    {
      "buffer": 0,
      "byteLength": 2139840,
      "byteOffset": 0,
      "name": "floatBufferViews",
      "target": 34963
    },
    {
      "buffer": 0,
      "byteLength": 2774280,
      "byteOffset": 2139840,
      "byteStride": 12,
      "name": "floatBufferViews",
      "target": 34962
    }
  ],
  "buffers": [
    {
      "byteLength": 4914120,
      "uri": "scene.bin"
    }
  ],
  "materials": [
    {
      "doubleSided": true,
      "emissiveFactor": [
        0,
        0,
        0
      ],
      "name": "Scene_-_Root",
      "pbrMetallicRoughness": {
        "baseColorFactor": [
          1,
          1,
          1,
          1
        ],
        "metallicFactor": 0,
        "roughnessFactor": 0.59999999999999998
      }
    }
  ],
  "meshes": [
    {
      "name": "Cube_0",
      "primitives": [
        {
          "attributes": {
            "NORMAL": 1,
            "POSITION": 0
          },
          "indices": 2,
          "material": 0,
          "mode": 4
        }
      ]
    },
    {
      "name": "Cube_0",
      "primitives": [
        {
          "attributes": {
            "NORMAL": 4,
            "POSITION": 3
          },
          "indices": 5,
          "material": 0,
          "mode": 4
        }
      ]
    }
  ],
  "nodes": [
    {
      "children": [
        1
      ],
      "name": "RootNode (gltf orientation matrix)",
      "rotation": [
        -0.70710678118654746,
        -0,
        -0,
        0.70710678118654757
      ]
    },
    {
      "children": [
        2
      ],
      "name": "RootNode (model correction matrix)"
    },
    {
      "children": [
        3
      ],
      "name": "Root"
    },
    {
      "children": [
        4,
        5
      ],
      "name": "Cube"
    },
    {
      "mesh": 0,
      "name": "Cube_0"
    },
    {
      "mesh": 1,
      "name": "Cube_0"
    }
  ],
  "scene": 0,
  "scenes": [
    {
      "name": "OSG_Scene",
      "nodes": [
        0
      ]
    }
  ]
}

