{
  "accessors": [
    {
      "bufferView": 1,
      "componentType": 5126,
      "count": 2822,
      "max": [
        10.030111312866211,
        2.8929071426391602,
        4.5143108367919922
      ],
      "min": [
        5.5677928924560547,
        1.6195530891418457,
        3.5506429672241211
      ],
      "type": "VEC3"
    },
    {
      "bufferView": 1,
      "byteOffset": 33864,
      "componentType": 5126,
      "count": 2822,
      "max": [
        0.99985241889953613,
        0.99862813949584961,
        0.99971789121627808
      ],
      "min": [
        -0.99964714050292969,
        -0.99983853101730347,
        -0.99846404790878296
      ],
      "type": "VEC3"
    },
    {
      "bufferView": 2,
      "componentType": 5126,
      "count": 2822,
      "max": [
        0.043137256056070328,
        0.20392157137393951,
        0.32156863808631897,
        1
      ],
      "min": [
        0,
        0,
        0,
        1
      ],
      "type": "VEC4"
    },
    {
      "bufferView": 0,
      "componentType": 5125,
      "count": 16674,
      "max": [
        2821
      ],
      "min": [
        0
      ],
      "type": "SCALAR"
    },
    {
      "bufferView": 1,
      "byteOffset": 67728,
      "componentType": 5126,
      "count": 65532,
      "max": [
        10.890201568603516,
        11.480937957763672,
        17.714035034179688
      ],
      "min": [
        0,
        2.1257600784301758,
        0.58089876174926758
      ],
      "type": "VEC3"
    },
    {
      "bufferView": 1,
      "byteOffset": 854112,
      "componentType": 5126,
      "count": 65532,
      "max": [
        0.99158865213394165,
        0.99999493360519409,
        0.99987488985061646
      ],
      "min": [
        -0.99999320507049561,
        -0.99999713897705078,
        -0.99993175268173218
      ],
      "type": "VEC3"
    },
    {
      "bufferView": 2,
      "byteOffset": 45152,
      "componentType": 5126,
      "count": 65532,
      "max": [
        0.68627452850341797,
        0.68235296010971069,
        0.92156863212585449,
        1
      ],
      "min": [
        0.019607843831181526,
        0.035294119268655777,
        0.058823529630899429,
        1
      ],
      "type": "VEC4"
    },
    {
      "bufferView": 0,
      "byteOffset": 66696,
      "componentType": 5125,
      "count": 366660,
      "max": [
        65531
      ],
      "min": [
        0
      ],
      "type": "SCALAR"
    },
    {
      "bufferView": 1,
      "byteOffset": 1640496,
      "componentType": 5126,
      "count": 65532,
      "max": [
        9.8078088760375977,
        11.477210998535156,
        14.630931854248047
      ],
      "min": [
        2.9767742156982422,
        5.0930080413818359,
        0.0001239776611328125
      ],
      "type": "VEC3"
    },
    {
      "bufferView": 1,
      "byteOffset": 2426880,
      "componentType": 5126,
      "count": 65532,
      "max": [
        0.9999273419380188,
        0.99983501434326172,
        0.99989098310470581
      ],
      "min": [
        -0.99997192621231079,
        -0.99998623132705688,
        -1
      ],
      "type": "VEC3"
    },
    {
      "bufferView": 2,
      "byteOffset": 1093664,
      "componentType": 5126,
      "count": 65532,
      "max": [
        0.61960786581039429,
        0.51372551918029785,
        0.87058824300765991,
        1
      ],
      "min": [
        0.015686275437474251,
        0.062745101749897003,
        0.16862745583057404,
        1
      ],
      "type": "VEC4"
    },
    {
      "bufferView": 0,
      "byteOffset": 1533336,
      "componentType": 5125,
      "count": 348423,
      "max": [
        65531
      ],
      "min": [
        0
      ],
      "type": "SCALAR"
    },
    {
      "bufferView": 1,
      "byteOffset": 3213264,
      "componentType": 5126,
      "count": 65532,
      "max": [
        10.691553115844727,
        10.468778610229492,
        13.549818992614746
      ],
      "min": [
        3.8024358749389648,
        3.611691951751709,
        0.044939994812011719
      ],
      "type": "VEC3"
    },
    {
      "bufferView": 1,
      "byteOffset": 3999648,
      "componentType": 5126,
      "count": 65532,
      "max": [
        0.94679474830627441,
        0.99998033046722412,
        0.96408283710479736
      ],
      "min": [
        -0.99998438358306885,
        -0.99971103668212891,
        -1
      ],
      "type": "VEC3"
    },
    {
      "bufferView": 2,
      "byteOffset": 2142176,
      "componentType": 5126,
      "count": 65532,
      "max": [
        0.43529412150382996,
        0.67843139171600342,
        0.93333333730697632,
        1
      ],
      "min": [
        0.015686275437474251,
        0.066666670143604279,
        0.17254902422428131,
        1
      ],
      "type": "VEC4"
    },
    {
      "bufferView": 0,
      "byteOffset": 2927028,
      "componentType": 5125,
      "count": 342792,
      "max": [
        65531
      ],
      "min": [
        0
      ],
      "type": "SCALAR"
    },
    {
      "bufferView": 1,
      "byteOffset": 4786032,
      "componentType": 5126,
      "count": 65532,
      "max": [
        12.232397079467773,
        9.9055681228637695,
        13.685817718505859
      ],
      "min": [
        3.8491201400756836,
        2.1102330684661865,
        0.1734161376953125
      ],
      "type": "VEC3"
    },
    {
      "bufferView": 1,
      "byteOffset": 5572416,
      "componentType": 5126,
      "count": 65532,
      "max": [
        0.9998328685760498,
        0.99998319149017334,
        0.99994319677352905
      ],
      "min": [
        -0.99998891353607178,
        -0.99907541275024414,
        -0.99999570846557617
      ],
      "type": "VEC3"
    },
    {
      "bufferView": 2,
      "byteOffset": 3190688,
      "componentType": 5126,
      "count": 65532,
      "max": [
        0.67058825492858887,
        0.68627452850341797,
        0.94901961088180542,
        1
      ],
      "min": [
        0.019607843831181526,
        0.035294119268655777,
        0.062745101749897003,
        1
      ],
      "type": "VEC4"
    },
    {
      "bufferView": 0,
      "byteOffset": 4298196,
      "componentType": 5125,
      "count": 323184,
      "max": [
        65531
      ],
      "min": [
        0
      ],
      "type": "SCALAR"
    },
    {
      "bufferView": 1,
      "byteOffset": 6358800,
      "componentType": 5126,
      "count": 65532,
      "max": [
        13.974493980407715,
        9.2133693695068359,
        17.259469985961914
      ],
      "min": [
        4.2848162651062012,
        2.0052421092987061,
        0
      ],
      "type": "VEC3"
    },
    {
      "bufferView": 1,
      "byteOffset": 7145184,
      "componentType": 5126,
      "count": 65532,
      "max": [
        0.99993449449539185,
        0.99981981515884399,
        0.99999129772186279
      ],
      "min": [
        -0.99998891353607178,
        -0.9999624490737915,
        -0.99999803304672241
      ],
      "type": "VEC3"
    },
    {
      "bufferView": 2,
      "byteOffset": 4239200,
      "componentType": 5126,
      "count": 65532,
      "max": [
        0.65490198135375977,
        0.68627452850341797,
        0.94901961088180542,
        1
      ],
      "min": [
        0.015686275437474251,
        0.035294119268655777,
        0.058823529630899429,
        1
      ],
      "type": "VEC4"
    },
    {
      "bufferView": 0,
      "byteOffset": 5590932,
      "componentType": 5125,
      "count": 313848,
      "max": [
        65531
      ],
      "min": [
        0
      ],
      "type": "SCALAR"
    },
    {
      "bufferView": 1,
      "byteOffset": 7931568,
      "componentType": 5126,
      "count": 65532,
      "max": [
        14.798677444458008,
        9.317378044128418,
        17.713481903076172
      ],
      "min": [
        4.8363170623779297,
        1.4072971343994141,
        0.016223907470703125
      ],
      "type": "VEC3"
    },
    {
      "bufferView": 1,
      "byteOffset": 8717952,
      "componentType": 5126,
      "count": 65532,
      "max": [
        0.9999849796295166,
        0.99914491176605225,
        0.99999034404754639
      ],
      "min": [
        -0.99986416101455688,
        -0.99999749660491943,
        -0.99998843669891357
      ],
      "type": "VEC3"
    },
    {
      "bufferView": 2,
      "byteOffset": 5287712,
      "componentType": 5126,
      "count": 65532,
      "max": [
        0.94901961088180542,
        0.97647058963775635,
        0.99607843160629272,
        1
      ],
      "min": [
        0.015686275437474251,
        0.035294119268655777,
        0.058823529630899429,
        1
      ],
      "type": "VEC4"
    },
    {
      "bufferView": 0,
      "byteOffset": 6846324,
      "componentType": 5125,
      "count": 308382,
      "max": [
        65531
      ],
      "min": [
        0
      ],
      "type": "SCALAR"
    },
    {
      "bufferView": 1,
      "byteOffset": 9504336,
      "componentType": 5126,
      "count": 65532,
      "max": [
        15.598755836486816,
        9.405543327331543,
        17.550657272338867
      ],
      "min": [
        5.366145133972168,
        0.91617012023925781,
        0.0050668716430664062
      ],
      "type": "VEC3"
    },
    {
      "bufferView": 1,
      "byteOffset": 10290720,
      "componentType": 5126,
      "count": 65532,
      "max": [
        0.9999849796295166,
        0.99997925758361816,
        0.99997156858444214
      ],
      "min": [
        -0.99902123212814331,
        -0.99996006488800049,
        -0.9999920129776001
      ],
      "type": "VEC3"
    },
    {
      "bufferView": 2,
      "byteOffset": 6336224,
      "componentType": 5126,
      "count": 65532,
      "max": [
        0.67058825492858887,
        0.68235296010971069,
        0.94509804248809814,
        1
      ],
      "min": [
        0.015686275437474251,
        0.039215687662363052,
        0.066666670143604279,
        1
      ],
      "type": "VEC4"
    },
    {
      "bufferView": 0,
      "byteOffset": 8079852,
      "componentType": 5125,
      "count": 305130,
      "max": [
        65531
      ],
      "min": [
        0
      ],
      "type": "SCALAR"
    },
    {
      "bufferView": 1,
      "byteOffset": 11077104,
      "componentType": 5126,
      "count": 65532,
      "max": [
        15.598755836486816,
        9.3818902969360352,
        17.707612991333008
      ],
      "min": [
        5.4834370613098145,
        0.2737431526184082,
        0.052880764007568359
      ],
      "type": "VEC3"
    },
    {
      "bufferView": 1,
      "byteOffset": 11863488,
      "componentType": 5126,
      "count": 65532,
      "max": [
        0.9999883770942688,
        0.9997866153717041,
        0.99988353252410889
      ],
      "min": [
        -0.99973917007446289,
        -0.99996006488800049,
        -0.99999278783798218
      ],
      "type": "VEC3"
    },
    {
      "bufferView": 2,
      "byteOffset": 7384736,
      "componentType": 5126,
      "count": 65532,
      "max": [
        0.67450982332229614,
        0.67843139171600342,
        0.94509804248809814,
        1
      ],
      "min": [
        0.015686275437474251,
        0.066666670143604279,
        0.17647059261798859,
        1
      ],
      "type": "VEC4"
    },
    {
      "bufferView": 0,
      "byteOffset": 9300372,
      "componentType": 5125,
      "count": 312288,
      "max": [
        65531
      ],
      "min": [
        0
      ],
      "type": "SCALAR"
    },
    {
      "bufferView": 1,
      "byteOffset": 12649872,
      "componentType": 5126,
      "count": 42971,
      "max": [
        11.783714294433594,
        5.2036452293395996,
        13.349094390869141
      ],
      "min": [
        6.6069850921630859,
        0,
        3.8220019340515137
      ],
      "type": "VEC3"
    },
    {
      "bufferView": 1,
      "byteOffset": 13165524,
      "componentType": 5126,
      "count": 42971,
      "max": [
        0.99870991706848145,
        0.9997866153717041,
        0.99997198581695557
      ],
      "min": [
        -0.99972248077392578,
        -0.99997049570083618,
        -0.99996840953826904
      ],
      "type": "VEC3"
    },
    {
      "bufferView": 2,
      "byteOffset": 8433248,
      "componentType": 5126,
      "count": 42971,
      "max": [
        0.94509804248809814,
        0.97647058963775635,
        0.99607843160629272,
        1
      ],
      "min": [
        0.019607843831181526,
        0.031372550874948502,
        0.058823529630899429,
        1
      ],
      "type": "VEC4"
    },
    {
      "bufferView": 0,
      "byteOffset": 10549524,
      "componentType": 5125,
      "count": 212043,
      "max": [
        42970
      ],
      "min": [
        0
      ],
      "type": "SCALAR"
    }
  ],
  "asset": {
    "extras": {
      "author": "Bema (https://sketchfab.com/Nastya.)",
      "license": "CC-BY-4.0 (http://creativecommons.org/licenses/by/4.0/)",
      "source": "https://sketchfab.com/models/65880617586342db903f9236c014aeab",
      "title": "Stitch (Fan Art)"
    },
    "generator": "Sketchfab-3.18.5",
    "version": "2.0"
  },
  "bufferViews": [
    {
      "buffer": 0,
      "byteLength": 11397696,
      "byteOffset": 0,
      "name": "floatBufferViews",
      "target": 34963
    },
    {
      "buffer": 0,
      "byteLength": 13681176,
      "byteOffset": 11397696,
      "byteStride": 12,
      "name": "floatBufferViews",
      "target": 34962
    },
    {
      "buffer": 0,
      "byteLength": 9120784,
      "byteOffset": 25078872,
      "byteStride": 16,
      "name": "floatBufferViews",
      "target": 34962
    }
  ],
  "buffers": [
    {
      "byteLength": 34199656,
      "uri": "scene.bin"
    }
  ],
  "materials": [
    {
      "doubleSided": true,
      "name": "Scene_-_Root",
      "pbrMetallicRoughness": {
        "baseColorFactor": [
          1,
          1,
          1,
          1
        ],
        "metallicFactor": 0,
        "roughnessFactor": 1
      }
    }
  ],
  "meshes": [
    {
      "primitives": [
        {
          "attributes": {
            "COLOR_0": 2,
            "NORMAL": 1,
            "POSITION": 0
          },
          "indices": 3,
          "material": 0,
          "mode": 4
        }
      ]
    },
    {
      "primitives": [
        {
          "attributes": {
            "COLOR_0": 6,
            "NORMAL": 5,
            "POSITION": 4
          },
          "indices": 7,
          "material": 0,
          "mode": 4
        }
      ]
    },
    {
      "primitives": [
        {
          "attributes": {
            "COLOR_0": 10,
            "NORMAL": 9,
            "POSITION": 8
          },
          "indices": 11,
          "material": 0,
          "mode": 4
        }
      ]
    },
    {
      "primitives": [
        {
          "attributes": {
            "COLOR_0": 14,
            "NORMAL": 13,
            "POSITION": 12
          },
          "indices": 15,
          "material": 0,
          "mode": 4
        }
      ]
    },
    {
      "primitives": [
        {
          "attributes": {
            "COLOR_0": 18,
            "NORMAL": 17,
            "POSITION": 16
          },
          "indices": 19,
          "material": 0,
          "mode": 4
        }
      ]
    },
    {
      "primitives": [
        {
          "attributes": {
            "COLOR_0": 22,
            "NORMAL": 21,
            "POSITION": 20
          },
          "indices": 23,
          "material": 0,
          "mode": 4
        }
      ]
    },
    {
      "primitives": [
        {
          "attributes": {
            "COLOR_0": 26,
            "NORMAL": 25,
            "POSITION": 24
          },
          "indices": 27,
          "material": 0,
          "mode": 4
        }
      ]
    },
    {
      "primitives": [
        {
          "attributes": {
            "COLOR_0": 30,
            "NORMAL": 29,
            "POSITION": 28
          },
          "indices": 31,
          "material": 0,
          "mode": 4
        }
      ]
    },
    {
      "primitives": [
        {
          "attributes": {
            "COLOR_0": 34,
            "NORMAL": 33,
            "POSITION": 32
          },
          "indices": 35,
          "material": 0,
          "mode": 4
        }
      ]
    },
    {
      "primitives": [
        {
          "attributes": {
            "COLOR_0": 38,
            "NORMAL": 37,
            "POSITION": 36
          },
          "indices": 39,
          "material": 0,
          "mode": 4
        }
      ]
    }
  ],
  "nodes": [
    {
      "children": [
        1
      ],
      "name": "RootNode (gltf orientation matrix)",
      "rotation": [
        -0.70710678118654746,
        -0,
        -0,
        0.70710678118654757
      ]
    },
    {
      "children": [
        2
      ],
      "name": "RootNode (model correction matrix)"
    },
    {
      "children": [
        3
      ],
      "matrix": [
        1,
        0,
        0,
        0,
        0,
        1,
        0,
        0,
        0,
        0,
        1,
        0,
        -9.8908500671386719,
        -5.550929069519043,
        -5.9709429740905762,
        1
      ],
      "name": "stitch.obj.cleaner.materialmerger.gles"
    },
    {
      "children": [
        4,
        5,
        6,
        7,
        8,
        9,
        10,
        11,
        12,
        13
      ],
      "name": ""
    },
    {
      "mesh": 0,
      "name": ""
    },
    {
      "mesh": 1,
      "name": ""
    },
    {
      "mesh": 2,
      "name": ""
    },
    {
      "mesh": 3,
      "name": ""
    },
    {
      "mesh": 4,
      "name": ""
    },
    {
      "mesh": 5,
      "name": ""
    },
    {
      "mesh": 6,
      "name": ""
    },
    {
      "mesh": 7,
      "name": ""
    },
    {
      "mesh": 8,
      "name": ""
    },
    {
      "mesh": 9,
      "name": ""
    }
  ],
  "scene": 0,
  "scenes": [
    {
      "name": "OSG_Scene",
      "nodes": [
        0
      ]
    }
  ]
}

